HIERARCHY
ROOT Hips
{
	OFFSET -3.958830 18.904000 13.208200
	CHANNELS 6 Xposition Yposition Zposition Zrotation Yrotation Xrotation 
	JOINT LHipJoint
	{
		OFFSET 0.000000 0.000000 0.000000
		CHANNELS 3 Zrotation Yrotation Xrotation
		JOINT LeftUpLeg
		{
			OFFSET 1.800000 -1.400000 0.085000
			CHANNELS 3 Zrotation Yrotation Xrotation
			JOINT LeftLeg
			{
				OFFSET 2.215000 -6.000000 0.000000
				CHANNELS 3 Zrotation Yrotation Xrotation
				JOINT LeftFoot
				{
					OFFSET 2.500000 -6.900000 0.000000
					CHANNELS 3 Zrotation Yrotation Xrotation
					JOINT LeftToeBase
					{
						OFFSET 0.200000 -0.500000 1.950000
						CHANNELS 3 Zrotation Yrotation Xrotation
						End Site
						{
							OFFSET 0.000000 0.000000 0.000000
						}
					}
				}
			}
		}
	}
	JOINT RHipJoint
	{
		OFFSET 0.000000 0.000000 0.000000
		CHANNELS 3 Zrotation Yrotation Xrotation
		JOINT RightUpLeg
		{
			OFFSET -1.800000 -1.400000 0.085000
			CHANNELS 3 Zrotation Yrotation Xrotation
			JOINT RightLeg
			{
				OFFSET -2.215000 -6.000000 0.000000
				CHANNELS 3 Zrotation Yrotation Xrotation
				JOINT RightFoot
				{
					OFFSET -2.500000 -6.900000 0.000000
					CHANNELS 3 Zrotation Yrotation Xrotation
					JOINT RightToeBase
					{
						OFFSET -0.200000 -0.500000 1.950000
						CHANNELS 3 Zrotation Yrotation Xrotation
						End Site
						{
							OFFSET 0.000000 0.000000 0.000000
						}
					}
				}
			}
		}
	}
	JOINT LowerBack
	{
		OFFSET 0.000000 0.000000 0.000000
		CHANNELS 3 Zrotation Yrotation Xrotation
		JOINT Spine
		{
			OFFSET -0.087000 1.940000 -0.288900
			CHANNELS 3 Zrotation Yrotation Xrotation
			JOINT Spine1
			{
				OFFSET 0.000000 1.950000 0.060000
				CHANNELS 3 Zrotation Yrotation Xrotation
				JOINT Neck
				{
					OFFSET 0.000000 0.000000 0.000000
					CHANNELS 3 Zrotation Yrotation Xrotation
					JOINT Neck1
					{
						OFFSET 0.000000 1.600000 0.340000
						CHANNELS 3 Zrotation Yrotation Xrotation
						JOINT Head
						{
							OFFSET 0.000000 1.667000 -0.240000
							CHANNELS 3 Zrotation Yrotation Xrotation
							End Site
							{
								OFFSET 0.000000 0.000000 0.000000
							}
						}
					}
				}
				JOINT LeftShoulder
				{
					OFFSET 0.000000 0.000000 0.000000
					CHANNELS 3 Zrotation Yrotation Xrotation
					JOINT LeftArm
					{
						OFFSET 2.700000 1.550000 -0.730000
						CHANNELS 3 Zrotation Yrotation Xrotation
						JOINT LeftForeArm
						{
							OFFSET 5.450000 0.000000 0.000000
							CHANNELS 3 Zrotation Yrotation Xrotation
							JOINT LeftHand
							{
								OFFSET 3.450000 0.000000 0.000000
								CHANNELS 3 Zrotation Yrotation Xrotation
								JOINT LeftHandIndex1
								{
									OFFSET 0.750000 0.000000 0.000000
									CHANNELS 3 Zrotation Yrotation Xrotation
									End Site
									{
										OFFSET 0.000000 0.000000 0.000000
									}
								}
							}
						}
					}
				}
				JOINT RightShoulder
				{
					OFFSET 0.000000 0.000000 0.000000
					CHANNELS 3 Zrotation Yrotation Xrotation
					JOINT RightArm
					{
						OFFSET -2.700000 1.550000 -0.730000
						CHANNELS 3 Zrotation Yrotation Xrotation
						JOINT RightForeArm
						{
							OFFSET -5.450000 0.000000 0.000000
							CHANNELS 3 Zrotation Yrotation Xrotation
							JOINT RightHand
							{
								OFFSET -3.450000 0.000000 0.000000
								CHANNELS 3 Zrotation Yrotation Xrotation
								JOINT RightHandIndex1
								{
									OFFSET -0.750000 0.000000 0.000000
									CHANNELS 3 Zrotation Yrotation Xrotation
									End Site
									{
										OFFSET 0.000000 0.000000 0.000000
									}
								}
							}
						}
					}
				}
			}
		}
	}
}
MOTION
Frames: 14
Frame Time: 0.016667
2.230890 18.292640 -3.646030 15.654047 -13.829528 -28.192905 -15.498205 9.710422 6.823208 -25.029022 -23.203458 -75.345629 23.621946 1.122924 105.934833 2.386690 17.122861 -0.681427 -0.008900 -0.308200 0.105870 18.540665 -9.151728 2.474549 -4.298449 8.625302 21.509068 22.160765 -15.266382 34.407968 -1.525657 -9.047729 1.403296 -0.081840 0.296870 -0.178790 -3.746985 -0.156096 -9.241187 -21.152796 20.916633 60.277614 -6.450132 10.075616 -5.809980 -1.291865 -15.881013 -7.886472 -42.667659 18.855907 17.282135 -11.724000 4.185460 -18.606740 1.176129 22.430050 -0.332036 -36.124236 18.142074 -9.555657 -10.629460 -4.188827 -1.983267 -3.542933 2.365785 0.707470 -0.160920 -0.105940 0.011400 -0.930383 -2.148614 4.129794 7.113130 -0.826819 -4.404153 -28.337450 30.804374 -4.086299 2.322348 -1.233640 -0.539820 0.630610 0.296060 -0.183980 
2.268390 18.270630 -3.692460 16.077760 -14.323648 -28.695412 -15.483257 9.730407 6.839428 -26.118828 -23.703007 -77.184289 26.838259 -3.428141 106.184403 2.568784 17.150531 -0.682353 0.070570 -0.136350 0.080450 18.549876 -9.290066 2.418548 -4.191714 7.059432 22.732322 18.389535 -13.404342 31.926784 -1.452259 -8.589777 1.556154 -0.045780 0.238430 -0.129160 -3.782190 0.029669 -9.187101 -21.312868 21.413599 60.446225 -6.945113 10.425565 -5.165670 -1.175124 -15.874908 -8.040530 -42.473674 19.497349 17.606866 -11.101310 4.783370 -18.269200 0.588415 21.850393 -0.227150 -37.221183 17.862342 -9.809646 -10.974335 -4.724168 -1.830219 -3.498327 2.508993 0.604130 -0.163750 -0.050300 0.053690 -0.772360 -1.319078 4.171303 6.152853 0.044263 -4.104128 -27.657553 31.184931 -4.151973 2.337518 -1.317554 -0.389720 0.532130 0.221370 -0.111370 
2.368360 18.198170 -3.769170 17.350368 -11.096583 -28.009345 -15.625718 9.639472 7.179029 -28.972763 -26.838582 -77.281436 32.679105 -10.903023 104.137139 2.617467 17.931455 -0.855032 -0.024740 -0.316200 0.106320 18.483138 -9.055332 2.237694 -5.452454 3.782383 24.030002 14.966575 -11.327251 23.826112 -1.253768 -7.708523 1.816527 -0.100040 0.304030 -0.106390 -3.483304 -0.564078 -9.285570 -24.781868 22.388590 60.637460 -5.198185 9.905403 -5.026133 -0.377740 -16.058238 -7.715624 -41.293487 18.665888 17.649254 -13.836750 5.323630 -19.446150 1.305781 22.477222 -0.864551 -41.294169 15.767412 -9.611023 -9.699657 -3.627891 -1.988330 -3.676139 2.299052 0.700450 -0.119950 -0.072640 -0.002020 -2.861449 -1.291509 4.161056 6.498037 3.789770 -3.720700 -24.119370 29.030129 -3.008621 2.287446 -1.212630 -0.506750 0.604610 0.318340 -0.181770 
2.502220 18.059510 -3.825010 16.983786 -8.990764 -26.250129 -15.632374 9.248088 7.480574 -29.813682 -30.439129 -79.674472 37.122963 -17.265562 104.040086 2.695648 19.160632 -1.171424 -0.164360 -0.529730 0.054460 18.551325 -8.985696 2.224134 -5.200385 1.473345 24.144826 13.060752 -10.107386 17.671976 -1.101974 -7.159804 1.980630 -0.134250 0.404480 -0.143930 -3.591392 -0.227491 -9.440452 -23.193557 20.322264 61.149668 -6.622432 8.420044 -5.888354 -0.180395 -16.291452 -7.795901 -41.151354 19.195105 17.534412 -12.638170 5.268710 -19.910620 0.737707 21.505489 -0.790856 -42.411561 15.787959 -9.590288 -10.151691 -4.384725 -2.115095 -3.803120 2.146145 0.793120 -0.081280 -0.159430 -0.087130 -2.275447 -1.045254 3.564677 6.476774 6.035480 -3.863370 -24.519792 31.205197 -3.342124 2.184399 -1.065921 -0.675180 0.713010 0.481430 -0.253730 
2.617000 17.909610 -3.919890 16.789715 -6.459243 -22.574346 -15.689270 8.996683 7.760796 -27.926273 -33.414657 -81.881831 39.337604 -20.411261 106.666467 2.901906 20.179794 -1.448263 -0.200910 -0.602100 -0.006470 18.568061 -8.871280 2.080413 -5.047937 0.677026 21.116563 13.248555 -9.723160 16.103264 -1.000254 -6.802979 2.025498 -0.164470 0.416370 -0.062680 -3.530607 -0.227975 -9.582832 -22.232600 18.045836 58.444880 -7.695378 7.778025 -4.757329 0.190448 -15.955382 -8.775770 -41.108595 19.478371 20.475485 -9.002190 4.492060 -18.255110 0.177384 19.119847 -0.410782 -44.164931 13.721705 -8.792223 -9.980981 -3.530420 -2.199746 -3.886863 2.225762 0.807000 -0.076300 -0.169830 -0.135620 -2.053369 0.092722 3.901650 7.740099 4.680178 -4.834358 -26.532348 35.250730 -4.397267 2.112009 -1.071758 -0.649170 0.634430 0.575260 -0.253270 
2.774800 17.769550 -3.971310 15.169995 -6.009433 -19.932391 -15.629528 8.980712 7.678994 -23.204537 -36.089279 -86.337712 32.233469 -12.730349 122.872120 2.738722 19.631476 -1.374071 -0.164470 -0.619730 0.024010 18.602769 -9.008961 2.086367 -3.639390 0.017077 18.754693 12.676361 -9.490081 16.789383 -0.965690 -6.560439 2.063424 -0.143060 0.386530 -0.037420 -3.639357 -0.067853 -9.563113 -17.867782 14.501666 56.823410 -10.433887 7.520183 -3.273580 0.937563 -15.949280 -9.718489 -42.997962 20.242314 21.808630 -7.147010 3.327630 -19.874130 -2.787403 16.019827 -0.248043 -44.950554 13.454807 -8.980484 -10.671409 -4.710830 -2.326396 -3.859617 2.250800 0.903890 -0.123830 -0.149580 -0.159820 -0.488625 1.748599 4.109828 7.690924 1.774758 -6.517175 -33.070307 42.045126 -7.713106 1.986032 -1.002735 -0.677820 0.638500 0.618380 -0.292760 
2.916660 17.666230 -4.050060 14.031570 -6.403931 -18.382966 -15.544566 8.990816 7.568827 -19.685304 -35.012000 -88.019726 30.253549 -9.604257 126.088429 2.654744 19.283950 -1.309809 -0.144300 -0.584470 0.010450 18.655301 -9.197281 2.107467 -2.907447 0.108256 16.841798 12.771650 -9.521961 18.383801 -0.947952 -6.483546 2.096535 -0.117500 0.380790 -0.068770 -3.824055 0.294680 -9.527352 -14.364328 12.324392 56.508198 -12.654464 7.559244 -3.069138 1.545088 -15.898739 -10.269522 -43.933896 20.692521 22.479413 -5.413290 2.698420 -20.098360 -5.498703 13.440316 -0.089192 -45.074746 12.712902 -8.950448 -12.184051 -5.839852 -2.298802 -3.800913 2.270014 0.919020 -0.149470 -0.147130 -0.148400 1.087204 3.352113 4.115791 7.152608 -1.552532 -8.303771 -39.116648 50.102993 -12.272438 1.859926 -0.899243 -0.685900 0.667270 0.613890 -0.286100 
2.955640 17.621680 -4.080420 17.514066 -10.145359 -17.001612 -15.508210 9.374101 7.264009 -14.277345 -28.496706 -92.780478 27.464524 -3.826095 123.476416 2.437314 18.479870 -1.176553 -0.016310 -0.410010 0.067050 18.585091 -9.516546 1.960889 -6.589819 2.280907 13.787914 12.810059 -9.399047 20.424767 -0.901033 -6.410658 2.108400 -0.036240 0.338320 -0.057460 -3.783432 0.429666 -9.255529 -18.385629 16.221699 51.334316 -12.243489 9.106002 -2.659498 0.500329 -15.530813 -9.622630 -43.712132 21.463911 23.592387 -3.303290 2.828920 -20.682270 -8.460352 12.022417 0.297320 -43.288468 12.743330 -8.805841 -13.159523 -8.731155 -1.966451 -3.692457 2.406962 0.886740 -0.172530 -0.102300 -0.099560 5.514783 4.523041 2.845360 4.231183 -3.710541 -9.314976 -41.363922 61.643745 -17.730686 1.746477 -0.796415 -0.614210 0.651020 0.526410 -0.260200 
3.025770 17.556990 -4.109080 17.871076 -12.882742 -16.770330 -15.530875 9.515888 7.212368 -7.783732 -17.626864 -90.254401 26.677582 0.647621 119.296122 2.288584 17.853955 -1.072752 0.058280 -0.302530 0.086280 18.542513 -9.528349 1.874537 -7.699265 3.764635 11.974363 13.725223 -9.709396 23.313394 -0.929917 -6.547064 2.065315 -0.014930 0.273830 -0.042090 -3.715977 0.511397 -9.196947 -19.340373 18.166284 49.916105 -11.655626 11.076414 -3.958522 0.465920 -15.512700 -8.751244 -42.419953 20.552802 25.042093 -2.989910 2.415830 -21.718440 -9.659119 12.923362 -0.379397 -43.346382 12.311426 -9.297900 -15.686002 -11.185128 -1.554772 -3.592690 2.516622 0.868460 -0.203870 -0.057550 -0.066350 6.112546 4.591690 2.246566 5.063445 -5.364419 -11.180680 -40.907029 72.247082 -23.014773 1.671776 -0.731726 -0.536380 0.599260 0.460170 -0.241250 
3.141390 17.521050 -4.207060 16.635222 -15.260815 -15.183236 -15.483953 9.657065 7.032770 -4.048584 -10.906700 -85.816154 26.893934 2.829296 114.979753 2.259901 17.295800 -0.986451 0.195300 -0.093970 0.100330 18.560051 -9.585746 1.885179 -8.074979 6.198919 6.895877 16.123066 -10.514130 28.646851 -1.014850 -6.834468 1.932012 0.026270 0.169570 0.018580 -3.832028 0.830341 -9.160820 -17.762179 17.585627 49.364072 -12.628614 11.558442 -4.337998 0.686348 -15.582760 -9.110296 -42.518716 20.894270 25.500947 -1.635990 2.073010 -23.185910 -10.670234 11.986529 0.005881 -45.390580 13.663969 -11.461874 -17.686262 -16.148404 -0.955131 -3.444125 2.747765 0.811840 -0.261660 0.030780 -0.012020 6.687707 5.804305 2.324168 5.649544 -4.342469 -11.999508 -27.057345 76.079317 -17.190636 1.805920 -1.100192 -0.363650 0.482110 0.357860 -0.174130 
3.254990 17.453600 -4.295160 13.109007 -14.624729 -13.034007 -15.443091 9.785861 6.706294 -0.541061 -7.126579 -79.320153 28.038490 2.122361 108.512455 2.214497 16.719468 -0.871328 0.267760 0.053400 0.076490 18.595795 -9.394457 2.185821 -7.182388 8.923492 1.719167 21.214953 -12.634593 33.648416 -1.226656 -7.520652 1.720230 0.037650 0.111920 0.034450 -3.941358 0.879938 -9.260344 -13.749490 14.657305 50.629763 -13.805434 10.887824 -5.563132 1.477850 -15.295029 -9.595837 -41.986419 21.505431 26.859128 -0.499430 2.138490 -23.570930 -11.147620 12.044633 -0.291850 -47.891144 14.259657 -13.188615 -20.573010 -18.343013 -0.470278 -3.354390 2.837379 0.765310 -0.294810 0.093530 0.042100 5.967823 5.169672 3.067559 8.948170 -5.142714 -12.230791 -0.788678 80.914583 -1.267676 1.942360 -1.541352 -0.243930 0.422310 0.275940 -0.109290 
3.348470 17.366280 -4.378050 9.509204 -12.042003 -10.487550 -15.379560 10.062603 6.069474 1.870402 -4.980960 -71.112653 30.872467 -1.053677 98.613630 2.060228 16.069028 -0.746552 0.206310 -0.018420 0.027550 18.624314 -9.091203 2.761729 -8.255690 12.160670 -5.363793 29.047436 -16.424497 37.693207 -1.499453 -8.574766 1.348377 -0.032940 0.118180 0.058560 -4.031779 0.655690 -9.355062 -10.720320 11.013119 52.132067 -14.518847 8.615486 -7.792912 2.508824 -15.180427 -10.041483 -40.230873 21.320392 27.350896 0.038090 2.103060 -22.706830 -10.552674 13.157573 -0.508063 -50.821715 16.633188 -15.617544 -24.150314 -20.937479 0.170384 -3.346123 2.877349 0.757450 -0.298740 0.094310 0.025960 4.208399 3.495446 4.100206 12.318874 -4.737458 -10.805872 39.365717 82.272279 28.648832 2.135000 -1.711851 -0.220140 0.376800 0.303800 -0.089100 
3.434090 17.270150 -4.469920 6.796184 -12.196549 -8.208223 -15.350894 10.231917 5.362623 6.045514 -0.983537 -65.260547 29.656974 1.396804 89.723655 1.754123 14.974617 -0.475802 0.177890 -0.062450 0.030140 18.651714 -8.595637 3.574225 -12.239581 16.997787 -14.759102 37.511804 -21.240519 42.575976 -1.886252 -9.965631 0.917647 -0.063850 0.148800 0.045250 -4.127829 0.452349 -9.476417 -8.359856 9.603173 52.974641 -14.807717 7.576379 -10.022035 2.894200 -15.304727 -9.693118 -38.760779 20.718663 26.788305 0.070840 1.556620 -22.794700 -9.800168 15.509260 -1.131244 -52.832749 18.054219 -16.747294 -29.403794 -22.455724 1.186006 -3.339165 2.847117 0.756390 -0.298150 0.089240 0.038810 2.934189 1.305321 4.361590 15.555786 -3.490414 -9.284625 59.335708 81.376054 41.967899 2.372854 -1.421856 -0.237710 0.412630 0.295340 -0.077770 
3.562100 17.159800 -4.551730 2.707297 -11.324832 -6.200132 -15.284506 10.362152 4.755506 10.829747 2.079775 -59.202780 26.822780 3.776840 80.590723 1.382401 13.726940 -0.209733 0.091190 -0.179410 -0.045630 18.728084 -8.249409 4.273144 -15.435215 20.043233 -21.950178 45.027947 -25.041950 43.708056 -2.126357 -10.813449 0.674554 -0.141000 0.167060 0.063710 -4.323548 0.333769 -9.589552 -2.933389 6.406635 56.189837 -16.288654 5.847102 -13.869487 4.124437 -15.631632 -9.519244 -38.761885 20.723467 25.559716 -0.654090 0.829060 -22.101710 -10.267833 17.830220 -1.883426 -54.498814 20.506454 -17.914218 -33.740781 -25.134474 2.655024 -3.339783 2.885604 0.752920 -0.291660 0.055970 0.010000 1.320852 -0.995139 4.735695 19.476610 -3.850957 -8.154078 77.508524 80.474633 52.794506 2.890606 -0.531329 -0.238360 0.372950 0.359000 -0.069030 
